<svg xmlns="http://www.w3.org/2000/svg" width="1800" height="820" viewBox="0 0 1800 820">
<defs><linearGradient id="bg" x1="0" y1="0" x2="1" y2="1"><stop offset="0" stop-color="#ffffff"/><stop offset="1" stop-color="#f6f1ff"/></linearGradient><filter id="s"><feDropShadow dx="0" dy="5" stdDeviation="7" flood-opacity=".12"/></filter><style>.t{font:700 42px Arial,sans-serif;fill:#23143f}.h{font:700 24px Arial,sans-serif;fill:#7a16f5}.n{font:700 17px Arial,sans-serif;fill:#241943}.d{font:400 13px Arial,sans-serif;fill:#696174}.a{stroke:#aa86ef;stroke-width:4;stroke-dasharray:7 9;fill:none;marker-end:url(#m)}.card{fill:#fff;stroke:#e3d7fa;stroke-width:2}</style><marker id="m" markerWidth="10" markerHeight="10" refX="9" refY="5" orient="auto"><path d="M0 0L10 5L0 10z" fill="#8a2be2"/></marker></defs>
<rect width="1800" height="820" rx="30" fill="url(#bg)"/>
<text x="60" y="68" class="t">AI Real Estate Search Bot - Actual Make.com Topology</text>
<text x="60" y="108" class="d" style="font-size:20px">One scenario with a conversation stage, a DOM.RIA search, and two Router branches.</text>
<rect x="45" y="140" width="1710" height="260" rx="28" class="card"/>
<text x="75" y="182" class="h">1. Conversation and State Management</text>
<path class="a" d="M175 275H265M385 275H475M595 275H685M805 275H895M1015 275H1105"/>
<g filter="url(#s)"><circle cx="115" cy="275" r="48" fill="#229ed9"/><text x="115" y="284" text-anchor="middle" fill="#fff" font-size="28">TG</text><text x="115" y="350" text-anchor="middle" class="n">Telegram</text><text x="115" y="372" text-anchor="middle" class="d">Watch updates</text></g>
<g filter="url(#s)"><circle cx="325" cy="275" r="48" fill="#18bfff"/><text x="325" y="284" text-anchor="middle" fill="#fff" font-size="25">DB</text><text x="325" y="350" text-anchor="middle" class="n">Airtable</text><text x="325" y="372" text-anchor="middle" class="d">Search records</text></g>
<g filter="url(#s)"><circle cx="535" cy="275" r="48" fill="#19a974"/><text x="535" y="284" text-anchor="middle" fill="#fff" font-size="25">AI</text><text x="535" y="350" text-anchor="middle" class="n">OpenAI #1</text><text x="535" y="372" text-anchor="middle" class="d">Interpret input and state</text></g>
<g filter="url(#s)"><circle cx="745" cy="275" r="48" fill="#9877df"/><text x="745" y="284" text-anchor="middle" fill="#fff" font-size="25">{ }</text><text x="745" y="350" text-anchor="middle" class="n">JSON</text><text x="745" y="372" text-anchor="middle" class="d">Parse AI response</text></g>
<g filter="url(#s)"><circle cx="955" cy="275" r="48" fill="#18bfff"/><text x="955" y="284" text-anchor="middle" fill="#fff" font-size="25">DB</text><text x="955" y="350" text-anchor="middle" class="n">Airtable</text><text x="955" y="372" text-anchor="middle" class="d">Update state</text></g>
<g filter="url(#s)"><circle cx="1165" cy="275" r="48" fill="#229ed9"/><text x="1165" y="284" text-anchor="middle" fill="#fff" font-size="28">TG</text><text x="1165" y="350" text-anchor="middle" class="n">Telegram</text><text x="1165" y="372" text-anchor="middle" class="d">Send next reply</text></g>
<path class="a" d="M1225 275H1375"/><g filter="url(#s)"><circle cx="1435" cy="275" r="48" fill="#0d7eea"/><text x="1435" y="284" text-anchor="middle" fill="#fff" font-size="23">HTTP</text><text x="1435" y="350" text-anchor="middle" class="n">DOM.RIA Search</text><text x="1435" y="372" text-anchor="middle" class="d">Search listing IDs</text></g>
<path class="a" d="M1495 275H1590"/><g filter="url(#s)"><circle cx="1650" cy="275" r="48" fill="#8dd05d"/><text x="1650" y="284" text-anchor="middle" fill="#fff" font-size="24">R</text><text x="1650" y="350" text-anchor="middle" class="n">Router</text><text x="1650" y="372" text-anchor="middle" class="d">Split empty / success</text></g>
<rect x="45" y="430" width="1710" height="330" rx="28" class="card"/>
<text x="75" y="472" class="h">2. Router Branches and Result Processing</text>
<text x="85" y="525" class="n">Empty-result branch</text><path class="a" d="M250 540H390"/>
<g filter="url(#s)"><circle cx="450" cy="540" r="42" fill="#229ed9"/><text x="450" y="548" text-anchor="middle" fill="#fff" font-size="24">TG</text><text x="450" y="604" text-anchor="middle" class="n">Telegram</text><text x="450" y="625" text-anchor="middle" class="d">Nothing found</text></g>
<path class="a" d="M505 540H625"/><g filter="url(#s)"><circle cx="685" cy="540" r="42" fill="#18bfff"/><text x="685" y="548" text-anchor="middle" fill="#fff" font-size="23">DB</text><text x="685" y="604" text-anchor="middle" class="n">Airtable</text><text x="685" y="625" text-anchor="middle" class="d">Reset state</text></g>
<text x="85" y="688" class="n">Successful-result branch</text>
<path class="a" d="M290 690H365M465 690H540M640 690H715M815 690H890M990 690H1065M1165 690H1240M1340 690H1415"/>
<g filter="url(#s)"><circle cx="240" cy="690" r="40" fill="#8dd05d"/><text x="240" y="698" text-anchor="middle" fill="#fff" font-size="22">IT</text><text x="240" y="750" text-anchor="middle" class="n">Iterator</text></g>
<g filter="url(#s)"><circle cx="415" cy="690" r="40" fill="#0d7eea"/><text x="415" y="698" text-anchor="middle" fill="#fff" font-size="20">HTTP</text><text x="415" y="750" text-anchor="middle" class="n">Listing details</text></g>
<g filter="url(#s)"><circle cx="590" cy="690" r="40" fill="#8dd05d"/><text x="590" y="698" text-anchor="middle" fill="#fff" font-size="20">AG</text><text x="590" y="750" text-anchor="middle" class="n">Array Aggregator</text></g>
<g filter="url(#s)"><circle cx="765" cy="690" r="40" fill="#19a974"/><text x="765" y="698" text-anchor="middle" fill="#fff" font-size="22">AI</text><text x="765" y="750" text-anchor="middle" class="n">OpenAI #2</text></g>
<g filter="url(#s)"><circle cx="940" cy="690" r="40" fill="#229ed9"/><text x="940" y="698" text-anchor="middle" fill="#fff" font-size="22">TG</text><text x="940" y="750" text-anchor="middle" class="n">Telegram</text></g>
<g filter="url(#s)"><circle cx="1115" cy="690" r="40" fill="#18bfff"/><text x="1115" y="698" text-anchor="middle" fill="#fff" font-size="22">DB</text><text x="1115" y="750" text-anchor="middle" class="n">Airtable reset</text></g>
<text x="1260" y="670" class="d" style="font-size:16px">OpenAI #2 formats aggregated</text><text x="1260" y="694" class="d" style="font-size:16px">property data for Telegram.</text>
</svg>